<?xml version="1.0" encoding="UTF-8"?>
<svg id="Capa_2" data-name="Capa 2" xmlns="http://www.w3.org/2000/svg" viewBox="0 0 339.55 146.86">
  <defs>
    <style>
      .cls-1 {
        fill: #1d1d1b;
      }
    </style>
  </defs>
  <g id="Capa_1-2" data-name="Capa 1">
    <g>
      <path class="cls-1" d="m0,33.99h20.32l33.54,72.88h.32l33.7-72.88h20.31v112.86h-21.12v-68.68h-.32l-25.96,52.88h-13.54l-25.8-52.88h-.32v68.68H0V33.99Z"/>
      <path class="cls-1" d="m129.15,127.51V33.99h21.93v85.94l8.22,8.22h31.6l8.22-8.22V33.99h21.93v93.51l-19.35,19.35h-53.21l-19.35-19.35Z"/>
      <path class="cls-1" d="m237.98,33.99h22.57l28.05,86.74h.32l28.05-86.74h22.57l-40.15,112.86h-21.28l-40.15-112.86Z"/>
      <path class="cls-1" d="m138.36,17.21V6.92l6.92-6.92h11.74l6.76,7.08v9.97l-6.76,7.08h-11.74l-6.92-6.92Z"/>
      <path class="cls-1" d="m186.41,17.21V6.92l6.92-6.92h11.74l6.76,7.08v9.97l-6.76,7.08h-11.74l-6.92-6.92Z"/>
    </g>
  </g>
</svg>