<?xml version="1.0" encoding="UTF-8"?>
<svg id="Capa_2" data-name="Capa 2" xmlns="http://www.w3.org/2000/svg" viewBox="0 0 384 384">
  <defs>
    <style>
      .cls-1 {
        fill: #fff;
      }
    </style>
  </defs>
  <g id="Capa_1-2" data-name="Capa 1">
    <path class="cls-1" d="m168,0c6.53.93,13.14,1.45,19.57,2.85,65.27,14.2,107.89,53.42,124.65,117.93,13.16,50.64,1.54,97.23-31,138.39-.54.69-1.09,1.36-1.62,2.06-.14.19-.21.45-.4.87.87.92,1.78,1.91,2.73,2.86,31.9,31.91,63.84,63.78,95.66,95.77,2.57,2.58,4.3,5.99,6.41,9.01v4.5c-1.67,4.83-4.92,8.08-9.75,9.75h-4.5c-3.02-2.12-6.42-3.85-9-6.41-31.82-31.64-63.51-63.39-95.23-95.13-1.06-1.06-2-2.23-3.21-3.59-3.29,2.52-6.29,4.89-9.35,7.15-90.78,67.17-221.16,20.32-248.2-89.28-2.05-8.32-2.76-16.98-4.1-25.47-.17-1.1-.44-2.18-.66-3.27,0-6.25,0-12.5,0-18.75.74-5.42,1.39-10.86,2.22-16.27C12.1,68.23,64,14.81,128.58,2.99c6.84-1.25,13.78-2.01,20.67-2.99,6.25,0,12.5,0,18.75,0Zm-9.51,24.04c-74.26.09-134.42,60.27-134.45,134.51-.03,74.38,60.37,134.76,134.7,134.64,74.28-.11,134.4-60.27,134.45-134.52.05-74.37-60.33-134.72-134.7-134.64Z"/>
  </g>
</svg>